<?xml version="1.0" encoding="utf-8"?>
<!-- Generator: Adobe Illustrator 27.0.0, SVG Export Plug-In . SVG Version: 6.00 Build 0)  -->
<!DOCTYPE svg PUBLIC "-//W3C//DTD SVG 1.1//EN" "http://www.w3.org/Graphics/SVG/1.1/DTD/svg11.dtd" [
	<!ENTITY st0 "fill:#EA5458;">
	<!ENTITY st1 "enable-background:new    ;">
	<!ENTITY st2 "fill:#00748F;">
	<!ENTITY st3 "fill:#008F9C;">
	<!ENTITY st4 "fill:#006682;">
	<!ENTITY st5 "fill:#E8D6BB;">
	<!ENTITY st6 "fill:#F5E3D4;">
	<!ENTITY st7 "fill:#E9464B;">
	<!ENTITY st8 "fill:#FFD421;">
	<!ENTITY st9 "fill:#FFCF00;">
	<!ENTITY st10 "fill:#E83B3B;">
	<!ENTITY st11 "fill:#29B4AD;">
	<!ENTITY st12 "fill:#5DBFC1;">
	<!ENTITY st13 "fill:#009DA2;">
	<!ENTITY st14 "fill:#F6A122;">
	<!ENTITY st15 "fill:#EA5258;">
	<!ENTITY st16 "fill:#00718C;">
	<!ENTITY st17 "fill:#008096;">
	<!ENTITY st18 "fill:#3EB7B2;">
	<!ENTITY st19 "fill:#009AA1;">
	<!ENTITY st20 "opacity:0.45;fill:#FFE06E;">
	<!ENTITY st21 "opacity:0.57;fill:#6FC5C8;">
	<!ENTITY st22 "fill:#00A0A4;">
	<!ENTITY st23 "fill:#007691;">
	<!ENTITY st24 "fill:#1C1434;">
	<!ENTITY st25 "fill:#F9F9F9;">
]>
<svg version="1.1" id="Camada_1" xmlns="http://www.w3.org/2000/svg" xmlns:xlink="http://www.w3.org/1999/xlink" x="0px" y="0px"
	 viewBox="0 0 300 200" style="enable-background:new 0 0 300 200;" xml:space="preserve">
<path style="&st0;" d="M191.44,121.06l-1.59-0.92l-0.07-0.39c-0.35-2.9-0.13-5.82,0.67-8.63l0.17-0.47l1.3,0.74l0.04-0.1
	c-0.8,2.81-1.02,5.73-0.66,8.64L191.44,121.06z"/>
<path style="&st0;" d="M188.56,119.37l-1.59-0.92l-0.07-0.39c-0.35-2.9-0.13-5.82,0.67-8.63l0.17-0.47l1.3,0.74l0.04-0.1
	c-0.8,2.81-1.02,5.73-0.66,8.64L188.56,119.37z"/>
<g>
	<g>
		<g>
			<g style="&st1;">
				<g>
					<polygon style="&st2;" points="211.08,91.06 247.08,111.84 219.81,127.69 183.82,106.68 					"/>
				</g>
				<g>
					<path style="&st3;" d="M219.88,127.7c0,0-1.06,5.08-0.71,6.83l0.61,3.11l-35.93-21.05l-0.06-0.18
						c-2.19-5.62,0.02-9.72,0.02-9.72L219.88,127.7z"/>
				</g>
				<g>
					<path style="&st3;" d="M219.88,127.7c0,0-1.06,5.08-0.71,6.83l0.61,3.11l-35.93-21.05l-0.06-0.18
						c-2.19-5.62,0.02-9.72,0.02-9.72L219.88,127.7z"/>
				</g>
				<g>
					<path style="&st4;" d="M219.81,127.69l27.27-15.84l0,1.44l-1.8,1.07l0.36,6.51l1.42-0.4l-0.01,1.5l-27.27,15.66l0.03,0.05
						C217.94,132.24,219.81,127.69,219.81,127.69z"/>
				</g>
			</g>
		</g>
		<path style="&st5;" d="M245.72,116.91c0-1.37,0.51-2.62,1.36-3.59l0-0.02l-25.67,14.88c-0.26,0.21-0.34,0.3-0.4,0.53l-0.38,1.51
			c-0.36,1.42-0.31,2.9,0.12,4.3l0.14,0.45c0.09,0.3,0.45,0.44,0.72,0.28l25.44-14.74l0-0.02
			C246.23,119.51,245.72,118.26,245.72,116.91z"/>
	</g>
	<polygon style="&st6;" points="245.7,116.84 220.43,131.53 220.49,130.92 220.6,130.32 245.86,115.71 	"/>
	<polygon style="&st6;" points="246.11,118.89 220.51,133.46 220.61,134.01 246.28,119.32 	"/>
	<polygon style="&st6;" points="245.98,115.28 220.7,129.99 220.95,128.95 246.39,114.33 	"/>
</g>
<g>
	<g style="&st1;">
		<g>
			<polygon style="&st7;" points="187.53,96.45 211.86,82.51 243.98,101.05 219.65,115.19 			"/>
		</g>
		<g>
			<path style="&st8;" d="M219.7,115.2c0,0-0.94,4.53-0.63,6.09l0.55,2.77l-32.11-18.94l0,0c-1.95-5.01,0.02-8.67,0.02-8.67
				L219.7,115.2z"/>
		</g>
		<g>
			<path style="&st9;" d="M219.7,115.2c0,0-0.94,4.53-0.63,6.09l0.55,2.77l-32.11-18.94l0,0c-1.95-5.01,0.02-8.67,0.02-8.67
				L219.7,115.2z"/>
		</g>
		<g>
			<path style="&st10;" d="M219.65,115.19l24.33-14.13l0,1.29l-1.61,0.96l0.32,5.8l1.27-0.36l-0.01,1.34l-24.33,13.97l0.03,0.04
				C217.98,119.25,219.65,115.19,219.65,115.19z"/>
		</g>
	</g>
</g>
<path style="&st5;" d="M242.77,105.57c0-1.22,0.46-2.34,1.21-3.2l0-0.02l-22.9,13.27c-0.23,0.19-0.3,0.27-0.35,0.47l-0.34,1.35
	c-0.32,1.26-0.28,2.59,0.11,3.83l0.13,0.4c0.08,0.27,0.4,0.39,0.64,0.25l22.7-13.15l0-0.02
	C243.21,107.89,242.77,106.78,242.77,105.57z"/>
<polygon style="&st6;" points="242.74,105.51 220.2,118.62 220.25,118.08 220.36,117.54 242.89,104.5 "/>
<polygon style="&st6;" points="243.11,107.34 220.27,120.34 220.36,120.83 243.26,107.73 "/>
<polygon style="&st6;" points="242.99,104.12 220.44,117.24 220.66,116.32 243.36,103.28 "/>
<polygon style="&st11;" points="191.67,88.27 212.99,76.05 241.13,92.37 219.81,104.76 "/>
<path style="&st12;" d="M219.86,104.71c0,0-0.83,3.97-0.55,5.34l0.48,2.43l-28.14-16.6l0,0c-1.71-4.39,0.02-7.6,0.02-7.6
	L219.86,104.71z"/>
<path style="&st12;" d="M219.86,104.71c0,0-0.83,3.97-0.55,5.34l0.48,2.43l-28.14-16.6l0,0c-1.71-4.39,0.02-7.6,0.02-7.6
	L219.86,104.71z"/>
<g>
	<path style="&st13;" d="M219.81,104.7l21.32-12.38l0,1.13l-1.41,0.84l0.28,5.09l1.11-0.31l-0.01,1.17l-21.32,12.24l0.03,0.04
		C218.35,108.25,219.81,104.7,219.81,104.7z"/>
</g>
<path style="&st5;" d="M240.07,96.27c0-1.07,0.4-2.05,1.06-2.81l0-0.01l-20.07,11.63c-0.2,0.16-0.27,0.24-0.31,0.41l-0.3,1.18
	c-0.28,1.11-0.25,2.27,0.09,3.36l0.11,0.35c0.07,0.24,0.35,0.34,0.56,0.22l19.89-11.53l0-0.02
	C240.46,98.3,240.07,97.33,240.07,96.27z"/>
<polygon style="&st6;" points="240.05,96.22 220.29,107.7 220.34,107.23 220.43,106.76 240.18,95.33 "/>
<polygon style="&st6;" points="240.37,97.82 220.36,109.21 220.44,109.64 240.5,98.16 "/>
<polygon style="&st6;" points="240.27,95 220.51,106.5 220.7,105.69 240.59,94.26 "/>
<polygon style="&st8;" points="232.55,130.18 229.62,130.95 228.57,132.44 223.65,129.63 227.63,127.37 "/>
<g>
	<polygon style="&st14;" points="225.53,128.57 229.64,130.94 232.55,130.18 227.63,127.37 	"/>
</g>
<path style="&st15;" d="M215.46,114.31l-0.25,0.68c-0.45,1.23-0.54,2.56-0.25,3.84l0.28,1.24l-25.2-14.55l-0.23-0.95
	c-0.3-1.21-0.26-2.48,0.11-3.67l0.35-1.14L215.46,114.31z"/>
<path style="&st16;" d="M199.51,100.49l-5.05-2.92l-0.34-1.06c-0.67-2.06-0.55-4.29,0.33-6.27l0.13-0.3l4.93,2.84l0,0
	c-0.9,1.94-1.06,4.15-0.45,6.2L199.51,100.49z"/>
<polygon style="&st17;" points="183.82,106.68 219.81,127.69 220.9,127.09 184.82,106.09 "/>
<polygon style="&st14;" points="187.53,96.45 219.65,115.19 220.59,114.69 188.35,95.96 "/>
<polygon style="&st18;" points="191.67,88.28 219.81,104.69 220.78,104.15 192.49,87.78 "/>
<path style="&st16;" d="M211.85,107.79l-1.77-0.99l-0.23-0.91c-0.57-2.25-0.47-4.62,0.31-6.81l0,0l1.77,0.99l-0.02,0.05
	c-0.76,2.19-0.86,4.55-0.28,6.8L211.85,107.79z"/>
<path style="&st16;" d="M214.68,109.45l-1.75-1.01l-0.22-0.9c-0.54-2.24-0.4-4.58,0.4-6.74l0,0l1.75,1.01l-0.02,0.05
	c-0.79,2.16-0.93,4.49-0.38,6.72L214.68,109.45z"/>
<path style="&st19;" d="M218.99,132.95c-0.28-3.02,0.83-5.24,0.83-5.24l-36.06-21.02c0,0-1.05,2.19-0.87,5.48L218.99,132.95z"/>
<path style="&st0;" d="M215.64,135.21l-1.58-0.92l-0.06-0.47c-0.35-2.9-0.13-5.82,0.67-8.63l0.17-0.47l1.3,0.74
	c0,0-1.24,3.86-0.62,8.53L215.64,135.21z"/>
<path style="&st0;" d="M212.69,133.48l-1.59-0.92l-0.07-0.39c-0.35-2.9-0.13-5.82,0.67-8.63l0.17-0.47l1.3,0.74l0.04-0.1
	c-0.8,2.81-1.02,5.73-0.66,8.64L212.69,133.48z"/>
<path style="&st20;" d="M218.88,119.43c0.04-2.32,0.82-4.23,0.82-4.23l-32.17-18.75c0,0-0.91,1.69-0.88,4.35L218.88,119.43z"/>
<path style="&st21;" d="M219.18,108.57c0.03-2.44,0.68-3.86,0.68-3.86l-28.19-16.43c0,0-0.83,1.54-0.77,3.94L219.18,108.57z"/>
<polygon style="&st22;" points="212.99,76.05 203.19,81.66 230.3,98.61 241.13,92.32 "/>
<polygon style="&st23;" points="202.54,87.99 213.54,81.69 222.98,87.09 211.92,93.54 "/>
<g>
	<polygon style="&st4;" points="213.54,81.69 208.18,84.76 217.25,90.43 222.98,87.09 	"/>
</g>
<g>
	<path style="&st24;" d="M13.37,135.58c-2.03,0-3.67-1.64-3.67-3.67v-54.3c0-2.03,1.64-3.67,3.67-3.67h10.97
		c2.03,0,3.67,1.64,3.67,3.67v54.3c0,2.03-1.64,3.67-3.67,3.67H13.37z"/>
	<path style="&st25;" d="M13.37,131.9V77.61h10.97v54.29H13.37z"/>
	<path style="&st24;" d="M34.7,135.05c-2.03,0-3.67-1.64-3.67-3.67v-54.3c0-2.03,1.64-3.67,3.67-3.67h22.01
		c6.42,0,11.63,1.65,15.48,4.91c4.04,3.41,6.09,7.81,6.09,13.07c0,3.78-1.12,8.39-5.52,11.92c0.97,0.74,1.86,1.6,2.67,2.56
		c2.71,3.23,4.09,7.02,4.09,11.27c0,5.39-2.08,9.82-6.18,13.15c-3.88,3.15-9.05,4.75-15.39,4.75H34.7z M56.71,119.3
		c1.52,0,2.64-0.34,3.43-1.05c0.46-0.41,0.99-1.1,0.99-2.75c0-1.65-0.55-2.35-1.04-2.79c-0.81-0.73-1.94-1.08-3.46-1.08h-7.3v7.67
		H56.71z M55.55,95.89c1.53,0,2.67-0.32,3.41-0.94c0.4-0.34,0.86-0.92,0.86-2.38c0-1.49-0.47-2.09-0.88-2.45
		c-0.73-0.64-1.87-0.96-3.38-0.96h-6.21v6.74H55.55z"/>
	<path style="&st25;" d="M34.7,77.08h22.01c5.55,0,9.92,1.35,13.11,4.05c3.19,2.7,4.79,6.12,4.79,10.27
		c0,6.07-3.53,10.14-10.58,12.21c3.58,0.52,6.44,2.06,8.6,4.63c2.15,2.57,3.23,5.54,3.23,8.91c0,4.25-1.61,7.69-4.82,10.31
		c-3.22,2.62-7.57,3.93-13.07,3.93H34.7V77.08z M45.67,85.48v14.08h9.88c2.43,0,4.37-0.61,5.79-1.83c1.43-1.22,2.14-2.94,2.14-5.17
		c0-2.23-0.71-3.97-2.14-5.21c-1.42-1.24-3.36-1.87-5.79-1.87H45.67z M45.67,122.98h11.05c2.44,0,4.4-0.66,5.87-1.98
		s2.22-3.15,2.22-5.49c0-2.33-0.75-4.17-2.26-5.52c-1.5-1.35-3.47-2.02-5.91-2.02H45.67V122.98z"/>
	<path style="&st24;" d="M105.67,134.41c-7.29,0-13.47-2.42-18.36-7.19c-4.92-4.79-7.41-11.09-7.41-18.73
		c0-7.65,2.53-13.94,7.52-18.69c4.94-4.7,11.11-7.08,18.36-7.08c7.24,0,13.42,2.38,18.36,7.08c4.99,4.75,7.52,11.04,7.52,18.69
		c0,7.65-2.54,13.95-7.55,18.75C119.15,132,112.94,134.41,105.67,134.41z M105.7,99.32c-2.08,0-3.72,0.7-5.16,2.21
		c-1.44,1.51-2.17,3.88-2.17,7.03c0,3.16,0.73,5.52,2.17,7.03c1.44,1.51,3.06,2.21,5.12,2.21c2.08,0,3.75-0.72,5.27-2.28
		c1.52-1.56,2.26-3.85,2.26-7c0-3.16-0.73-5.43-2.22-6.96C109.48,100.04,107.81,99.32,105.7,99.32z"/>
	<path style="&st25;" d="M89.88,124.59c-4.2-4.1-6.3-9.46-6.3-16.1c0-6.64,2.13-11.98,6.38-16.03c4.25-4.05,9.53-6.07,15.83-6.07
		c6.3,0,11.57,2.02,15.83,6.07c4.25,4.05,6.38,9.39,6.38,16.03c0,6.64-2.14,12.01-6.42,16.1c-4.28,4.1-9.58,6.15-15.91,6.15
		S94.08,128.69,89.88,124.59z M105.67,121.48c3.06,0,5.69-1.13,7.89-3.38c2.21-2.26,3.31-5.44,3.31-9.57c0-4.12-1.09-7.3-3.27-9.53
		c-2.18-2.23-4.81-3.35-7.9-3.35s-5.69,1.11-7.82,3.35c-2.13,2.23-3.19,5.42-3.19,9.56c0,4.15,1.06,7.34,3.19,9.57
		C100.01,120.36,102.61,121.48,105.67,121.48z"/>
	<path style="&st24;" d="M160.66,134.8c-7.29,0-13.47-2.42-18.35-7.19c-4.92-4.79-7.41-11.09-7.41-18.73
		c0-7.65,2.53-13.94,7.52-18.69c4.93-4.7,11.11-7.08,18.36-7.08c7.24,0,13.42,2.38,18.36,7.08c4.99,4.75,7.52,11.03,7.52,18.69
		c0,7.65-2.54,13.96-7.55,18.75C174.14,132.39,167.93,134.8,160.66,134.8z M160.69,99.72c-2.08,0-3.72,0.7-5.16,2.21
		c-1.44,1.51-2.17,3.88-2.17,7.03c0,3.16,0.73,5.52,2.17,7.03c1.44,1.51,3.07,2.21,5.12,2.21c2.08,0,3.75-0.72,5.27-2.28
		c1.53-1.56,2.26-3.85,2.26-7c0-3.16-0.73-5.43-2.22-6.96C164.47,100.43,162.8,99.72,160.69,99.72z"/>
	<path style="&st25;" d="M144.87,124.98c-4.2-4.1-6.3-9.46-6.3-16.1c0-6.64,2.13-11.98,6.38-16.02c4.25-4.05,9.53-6.07,15.83-6.07
		c6.3,0,11.57,2.02,15.83,6.07c4.25,4.05,6.38,9.39,6.38,16.02c0,6.64-2.14,12.01-6.42,16.1c-4.28,4.1-9.58,6.15-15.91,6.15
		S149.07,129.08,144.87,124.98z M160.66,121.87c3.06,0,5.69-1.13,7.89-3.38c2.21-2.26,3.31-5.44,3.31-9.57
		c0-4.12-1.09-7.3-3.27-9.53c-2.18-2.23-4.81-3.35-7.9-3.35c-3.09,0-5.69,1.11-7.82,3.35c-2.13,2.23-3.19,5.42-3.19,9.56
		c0,4.15,1.06,7.34,3.19,9.57C155,120.76,157.6,121.87,160.66,121.87z"/>
	<path style="&st24;" d="M267.88,134.6c-5.89,0-10.85-1.46-14.74-4.34c-4.16-3.07-6.46-7.47-6.85-13.09
		c-0.07-1.01,0.29-2.01,0.98-2.76c0.69-0.74,1.67-1.17,2.68-1.17h6.26c-2.36-0.89-4.45-2.25-6.23-4.06
		c-2.41-2.45-3.62-5.6-3.62-9.39c0-4.82,2.12-9.06,6.12-12.27c3.82-3.07,8.83-4.62,14.9-4.62c6.06,0,11.07,1.54,14.89,4.57
		c4.01,3.19,6.18,7.54,6.44,12.92c0.05,1-0.32,1.98-1.01,2.71c-0.69,0.73-1.65,1.14-2.66,1.14h-4.99c2.06,0.92,3.89,2.22,5.47,3.87
		c2.38,2.48,3.58,5.73,3.58,9.65c0,5.03-2.22,9.33-6.42,12.44C278.74,133.13,273.76,134.6,267.88,134.6z M264.48,115.38
		c0.16,0.35,0.27,0.73,0.32,1.13c0.13,1.12,0.25,2.19,3.27,2.19c1.22,0,2.14-0.22,2.74-0.66c0.29-0.21,0.35-0.33,0.36-0.49
		c-0.08-0.07-0.24-0.19-0.53-0.33c-1.4-0.7-3.17-1.26-5.28-1.66C265.06,115.5,264.77,115.44,264.48,115.38z M264.28,99.64
		c0.09,0.07,0.24,0.17,0.49,0.29c1.41,0.68,3.2,1.24,5.31,1.64c0.07,0.01,0.15,0.03,0.22,0.04c-0.07-0.23-0.11-0.47-0.13-0.71
		c-0.1-1.17-0.18-2.09-3.04-2.09c-1.73,0-2.44,0.38-2.66,0.54C264.35,99.45,264.3,99.49,264.28,99.64z"/>
	<path style="&st25;" d="M250.02,99.81c0-3.73,1.58-6.87,4.74-9.41c3.17-2.54,7.37-3.81,12.6-3.81c5.24,0,9.44,1.26,12.6,3.77
		c3.16,2.52,4.85,5.93,5.06,10.23h-11.2c-0.31-3.63-2.54-5.44-6.69-5.44c-2.07,0-3.68,0.41-4.82,1.24
		c-1.14,0.83-1.71,1.97-1.71,3.42c0,1.45,0.85,2.6,2.57,3.42c1.71,0.83,3.78,1.47,6.22,1.94c2.44,0.47,4.86,1.05,7.27,1.75
		c2.41,0.7,4.47,1.94,6.18,3.73c1.71,1.79,2.57,4.16,2.57,7.12c0,3.89-1.65,7.06-4.94,9.49c-3.29,2.44-7.5,3.66-12.6,3.66
		c-5.11,0-9.3-1.21-12.56-3.62c-3.27-2.41-5.06-5.87-5.37-10.38h11.2c0.41,3.63,2.72,5.44,6.92,5.44c2.02,0,3.66-0.45,4.9-1.36
		c1.24-0.91,1.87-2.1,1.87-3.58s-0.85-2.65-2.57-3.5c-1.71-0.86-3.79-1.52-6.22-1.98c-2.44-0.47-4.86-1.03-7.27-1.71
		c-2.41-0.67-4.47-1.88-6.18-3.61C250.88,104.88,250.02,102.61,250.02,99.81z"/>
</g>
</svg>
